<?xml version="1.0" encoding="UTF-8"?>
<!DOCTYPE svg PUBLIC "-//W3C//DTD SVG 1.1//EN" "http://www.w3.org/Graphics/SVG/1.1/DTD/svg11.dtd">
<svg xmlns="http://www.w3.org/2000/svg" version="1.1" width="512px" height="512px" style="shape-rendering:geometricPrecision; text-rendering:geometricPrecision; image-rendering:optimizeQuality; fill-rule:evenodd; clip-rule:evenodd" xmlns:xlink="http://www.w3.org/1999/xlink">
<g><path style="opacity:0.99" fill="#346da6" d="M 509.5,255.5 C 454.167,255.5 398.833,255.5 343.5,255.5C 374.418,243.085 399.251,223.085 418,195.5C 440.833,152.493 436.5,112.493 405,75.5C 373.623,44.0615 335.789,25.2282 291.5,19C 250.148,12.9712 209.815,16.9712 170.5,31C 145.238,40.8737 123.071,55.3737 104,74.5C 72.2681,110.749 67.2681,150.415 89,193.5C 107.734,222.073 132.9,242.74 164.5,255.5C 110.167,255.5 55.8333,255.5 1.5,255.5C 3.70096,169.257 39.0343,100.423 107.5,49C 181.532,-0.821067 260.866,-11.1544 345.5,18C 415.333,46.5 464.5,95.6667 493,165.5C 503.58,194.568 509.08,224.568 509.5,255.5 Z"/></g>
<g><path style="opacity:1" fill="#6691bb" d="M 343.5,255.5 C 342.833,255.5 342.167,255.5 341.5,255.5C 283.167,255.5 224.833,255.5 166.5,255.5C 165.833,255.5 165.167,255.5 164.5,255.5C 132.9,242.74 107.734,222.073 89,193.5C 67.2681,150.415 72.2681,110.749 104,74.5C 123.071,55.3737 145.238,40.8737 170.5,31C 209.815,16.9712 250.148,12.9712 291.5,19C 335.789,25.2282 373.623,44.0615 405,75.5C 436.5,112.493 440.833,152.493 418,195.5C 399.251,223.085 374.418,243.085 343.5,255.5 Z"/></g>
<g><path style="opacity:0.998" fill="#e5b731" d="M 1.5,255.5 C 55.8333,255.5 110.167,255.5 164.5,255.5C 165.167,255.5 165.833,255.5 166.5,255.5C 218.201,275.761 270.868,277.928 324.5,262C 330.461,260.296 336.128,258.129 341.5,255.5C 342.167,255.5 342.833,255.5 343.5,255.5C 398.833,255.5 454.167,255.5 509.5,255.5C 505.206,360.208 456.872,436.708 364.5,485C 291.012,517.917 217.678,517.584 144.5,484C 53.417,435.395 5.75038,359.228 1.5,255.5 Z"/></g>
<g><path style="opacity:1" fill="#ebc864" d="M 166.5,255.5 C 224.833,255.5 283.167,255.5 341.5,255.5C 336.128,258.129 330.461,260.296 324.5,262C 270.868,277.928 218.201,275.761 166.5,255.5 Z"/></g>
</svg>
