<?xml version="1.0" encoding="UTF-8"?>
<!DOCTYPE svg PUBLIC "-//W3C//DTD SVG 1.1//EN" "http://www.w3.org/Graphics/SVG/1.1/DTD/svg11.dtd">
<svg xmlns="http://www.w3.org/2000/svg" version="1.1" width="512px" height="512px" style="shape-rendering:geometricPrecision; text-rendering:geometricPrecision; image-rendering:optimizeQuality; fill-rule:evenodd; clip-rule:evenodd" xmlns:xlink="http://www.w3.org/1999/xlink">
<g><path style="opacity:0.993" fill="#00c4fd" d="M 509.5,219.5 C 420.833,219.5 332.167,219.5 243.5,219.5C 239.579,176.872 247.246,136.538 266.5,98.5C 269.899,97.9836 273.232,97.1503 276.5,96C 287.506,90.4428 299.006,86.2762 311,83.5C 316.62,83.9769 321.287,86.3102 325,90.5C 332.795,101.552 336.795,113.885 337,127.5C 341.794,131.417 347.294,133.917 353.5,135C 361.166,140.483 365.666,147.983 367,157.5C 369.007,162.838 372.841,166.004 378.5,167C 386.902,168.91 395.235,168.577 403.5,166C 408.683,163.156 414.183,161.323 420,160.5C 422.591,160.565 425.091,161.065 427.5,162C 433.342,165.754 439.009,169.754 444.5,174C 446.788,174.822 449.122,175.489 451.5,176C 462.386,176.119 473.219,175.286 484,173.5C 490.517,172.86 495.517,175.193 499,180.5C 502.348,193.562 505.848,206.562 509.5,219.5 Z"/></g>
<g><path style="opacity:0.993" fill="#00b4fd" d="M 266.5,98.5 C 247.246,136.538 239.579,176.872 243.5,219.5C 164.833,219.5 86.1667,219.5 7.5,219.5C 16.1939,204.303 27.8606,191.803 42.5,182C 53.5601,173.038 57.7267,161.538 55,147.5C 52.8198,141.147 50.6531,134.813 48.5,128.5C 49.993,120.832 54.3264,115.332 61.5,112C 74.7598,106.646 88.4265,105.313 102.5,108C 109.322,109.052 115.989,110.719 122.5,113C 144.114,120.538 165.781,127.871 187.5,135C 201.222,139.846 215.222,141.18 229.5,139C 234.333,136.833 237.833,133.333 240,128.5C 240.997,122.539 241.663,116.539 242,110.5C 243.702,104.136 247.868,100.636 254.5,100C 258.548,99.6958 262.548,99.1958 266.5,98.5 Z"/></g>
<g><path style="opacity:0.991" fill="#f6ca56" d="M 7.5,219.5 C 86.3316,220.499 165.332,220.833 244.5,220.5C 251.326,274.825 274.992,320.158 315.5,356.5C 306.17,358.834 297.504,357.334 289.5,352C 283.712,346.277 277.379,341.277 270.5,337C 264.146,335.996 259.646,338.496 257,344.5C 253.456,355.012 249.456,365.345 245,375.5C 234.637,390.281 220.471,399.448 202.5,403C 192.153,405.571 184.987,402.071 181,392.5C 180.023,387.266 180.69,382.266 183,377.5C 187.439,373.062 191.106,368.062 194,362.5C 194.356,356.145 194.356,349.812 194,343.5C 194.374,342.584 194.874,341.75 195.5,341C 197.556,340.689 199.556,340.189 201.5,339.5C 207.803,341.702 214.136,341.869 220.5,340C 223.383,338.568 224.717,336.235 224.5,333C 223.102,325.038 219.935,317.871 215,311.5C 202.613,294.774 187.446,281.274 169.5,271C 157.645,267.5 145.978,268.167 134.5,273C 120.717,279.226 106.717,284.893 92.5,290C 65.745,293.874 40.4117,289.541 16.5,277C 8.08892,272.289 2.42225,265.456 -0.5,256.5C -0.5,250.5 -0.5,244.5 -0.5,238.5C 1.38372,231.852 4.05039,225.519 7.5,219.5 Z"/></g>
<g><path style="opacity:0.994" fill="#f7e969" d="M 7.5,219.5 C 86.1667,219.5 164.833,219.5 243.5,219.5C 332.167,219.5 420.833,219.5 509.5,219.5C 509.802,222.373 510.469,225.039 511.5,227.5C 511.5,234.167 511.5,240.833 511.5,247.5C 509.882,252.534 506.882,256.701 502.5,260C 491.902,266.214 481.735,273.047 472,280.5C 467.843,287.27 465.176,294.603 464,302.5C 457.912,309.464 450.412,314.298 441.5,317C 425.09,322.803 408.756,328.803 392.5,335C 382.584,338.924 374.417,345.091 368,353.5C 364.595,360.457 366.428,365.29 373.5,368C 376.155,368.564 378.821,369.064 381.5,369.5C 392.314,367.796 402.981,365.463 413.5,362.5C 427.898,364.957 432.064,372.957 426,386.5C 424.442,388.359 422.609,389.859 420.5,391C 408.055,392.626 395.722,394.96 383.5,398C 378.902,400.27 374.569,402.937 370.5,406C 365.833,412 361.167,418 356.5,424C 349.526,429.216 343.36,428.382 338,421.5C 335.846,415.883 333.846,410.216 332,404.5C 324.868,397.516 316.368,393.016 306.5,391C 302.5,386.333 302.5,381.667 306.5,377C 313.342,373.078 320.342,369.412 327.5,366C 331.84,362.066 331.507,358.733 326.5,356C 322.885,354.605 319.218,354.772 315.5,356.5C 274.992,320.158 251.326,274.825 244.5,220.5C 165.332,220.833 86.3316,220.499 7.5,219.5 Z"/></g>
</svg>
